<?xml version="1.0" encoding="utf-8"?>
<!-- Generator: Adobe Illustrator 25.0.0, SVG Export Plug-In . SVG Version: 6.00 Build 0)  -->
<svg version="1.1" id="Layer_1" xmlns="http://www.w3.org/2000/svg" xmlns:xlink="http://www.w3.org/1999/xlink" x="0px" y="0px"
	 viewBox="0 0 750 500" style="enable-background:new 0 0 750 500;" xml:space="preserve">
<style type="text/css">
	.st0{fill:#FF00F9;}
</style>
<g id="Layer_2_1_">
</g>
<path class="st0" d="M334.6,330.6c-6.1,5.1-13.6,7.9-21.4,8c29-60.2,16.7-32.3,80-174.7c-122.2,254.6-100.3,210.7-6.5,0
	c-92.5,192.4-82.4,173.8-86.2,172.4c0,0,31.5-65.5,33.9-70.4c27.5-62.3,45.1-100.7,45.1-101.3c-0.3,0-23.9,49.8-82,170.3
	c-10.4-5.2-13.9-13.6-14.1-13.6c-1.6-2.8-5.6-0.3-4.1,2.3c11.6,20.9,39.8,26.3,58.3,10.6C340,332.1,337,328.6,334.6,330.6z
	 M418.5,304.2c-9.8-1.9-18.9-6.1-28.6-7.9c-4.8-0.9-23.6-2.6-23.6,5.3c-1,36.5-40.1,63.4-74.5,49.6c-23.3-9.7-34.1-36.6-23.9-59.9
	c10.8-24.4,40.2-31.6,55.3-21.4c-6.4,12.9-1.4,4.2-8.6,12.4c-4.6,5.3-10.9,17.3-4.9,20.7c34.7-72.9,33.9-68,18.3-42.6
	c-8-5.2-14.1-5.3-12.8-5.3c-21.8-11.1-7.8-57.1,39.6-55.1c6.8,0.4,7-4.2,9.5-9.4c24.5-51.7,24.2-47.8,18.6-54.6
	c9.5-8.1,14.6-20.5,13.5-33.1c3.4-6.6,9.1-12.5,13-20c9-3.9,19.7,1.4,21.8,11.2c0.5,2.7,3.2,4.4,5.9,3.8c9.2-1.9,0.5-18.8-10.7-23.9
	c-9.5-4.3-20.9-1.8-24.4,1.8c-5.2,6.1-0.1,7.7-7.9,3.4c0.9-2.7,0.7-5.2-0.8-6.1c-4.7-2.9-12.7,10.1-7.9,13c1.5,0.9,3.9,0,5.9-2.2
	c1.4,0.8,2.7,1.6,4.1,2.4c-12.9,17.1-7,16.5-11.9,13.9c2-7.8-4.6-8.4-8.5-1.2c-4.1,7.7,0.9,12.3,5.9,6.2c2.6,1.4,5.3,2.7,5.6,2.8
	c-0.3,5.3-2.1,10.3-5,14.6c-1.6-0.8-3.2-1.6-4.9-2.4c2.1-7.8-4.7-8.4-8.5-1.2c-4,7.6,0.8,12.3,5.9,6.2c1.2,0.6,2.5,1.2,3.7,1.8
	c-4.6,4.6-10.8,5-2.8,14.9c0.7,0.7,2.1-2.6-21.1,47.3c-15.9,0-28.9,3.3-41.9,13.7c-28.3,23.3-13.5,52.4-12.5,52.4
	c-37.5,7.5-53.9,43.2-42.1,74c6.5,17,20.4,30,38.2,34.4c17.5,4.3,36.3,0.2,51.2-9.7c4.7-3.1,8.9-7,12.8-11c3.5-3.7,7.7-7.3,9.6-12.1
	c1.6-4,3.1-8.1,4.4-12.2c0.3-1,3.1-13.4,3-13.4c20.8-2.7,35.8,15.8,71.9,7.6c0,0,8.2-2.5,14.4-11.2
	C469.1,293.3,443.2,309.1,418.5,304.2z M329.6,311.1c6.3,2.6,11.8-9.8,13-16.7C346.7,272.4,368.4,230,329.6,311.1z M306,254.7
	c-0.2,0-0.3,0-0.5,0 M325.4,271.8c0.1,0.1,0.3,0.2,0.4,0.3C325.8,272.1,325.4,271.8,325.4,271.8z M377.6,207.9c0,0,1.4,8.6-6.7,12.2
	c-6.5,2.2-4.2,12.1,3.2,9.5c11.3-4.3,15.5-14.9,12.9-26.9C384.6,191.9,428.8,94.9,377.6,207.9z"/>
</svg>
