<?xml version="1.0" encoding="utf-8"?>
<!-- Generator: Adobe Illustrator 25.0.0, SVG Export Plug-In . SVG Version: 6.00 Build 0)  -->
<svg version="1.1" id="Layer_1" xmlns="http://www.w3.org/2000/svg" xmlns:xlink="http://www.w3.org/1999/xlink" x="0px" y="0px"
	 viewBox="0 0 436.1 207.7" style="enable-background:new 0 0 436.1 207.7;" xml:space="preserve">
<style type="text/css">
	.st0{fill:#ACACE2;}
	.st1{fill:#7C60FF;}
</style>
<g id="Layer_2_1_">
</g>
<g>
	<path class="st0" d="M93.1,73.3c-0.2-0.2-0.3-0.4-0.2-0.7c0.1-0.3,0.3-0.4,0.6-0.4h5.9c0.2,0,0.4,0.1,0.5,0.2l3,2.7
		c0.1,0.1,0.2,0.3,0.2,0.5v30.6c0,0.3-0.2,0.5-0.5,0.6c-0.4,0.1-0.6,0-0.8-0.2l-18-19.7v13.3l4.4,4c0.2,0.2,0.3,0.4,0.2,0.7
		c-0.1,0.3-0.3,0.4-0.6,0.4h-5.9c-0.2,0-0.4-0.1-0.5-0.2l-3-2.7c-0.1-0.1-0.2-0.3-0.2-0.5V71.2c0-0.3,0.2-0.5,0.5-0.6
		c0.4-0.1,0.6,0,0.9,0.2l18,19.7V77.4L93.1,73.3z"/>
	<path class="st0" d="M113.4,73.3c-0.2-0.2-0.3-0.4-0.2-0.7c0.1-0.3,0.4-0.4,0.7-0.4h6.8c0.2,0,0.4,0.1,0.5,0.2l3,2.6
		c0.1,0.1,0.2,0.2,0.2,0.4v26.2l2.7,2.4c0.2,0.2,0.3,0.4,0.2,0.7c-0.1,0.3-0.4,0.4-0.7,0.4h-6.8c-0.2,0-0.4-0.1-0.5-0.2l-2.9-2.6
		c-0.1-0.1-0.2-0.3-0.2-0.5V75.8L113.4,73.3z M118.5,63.5c0.1-0.2,0.3-0.2,0.6-0.2s0.4,0.1,0.6,0.2l4.2,4.8c0.2,0.2,0.2,0.4,0.1,0.7
		c-0.1,0.3-0.4,0.4-0.6,0.4h-8.5c-0.3,0-0.5-0.1-0.6-0.4c-0.1-0.2-0.1-0.5,0.1-0.7L118.5,63.5z"/>
	<path class="st0" d="M151.3,73.3c-0.2-0.2-0.3-0.4-0.2-0.7c0.1-0.3,0.3-0.4,0.6-0.4h5.9c0.2,0,0.4,0.1,0.5,0.2l3,2.7
		c0.1,0.1,0.2,0.3,0.2,0.5v30.6c0,0.3-0.2,0.5-0.5,0.6c-0.4,0.1-0.6,0-0.8-0.2l-18-19.7v13.3l4.4,4c0.2,0.2,0.3,0.4,0.2,0.7
		c-0.1,0.3-0.3,0.4-0.6,0.4h-5.9c-0.2,0-0.4-0.1-0.5-0.2l-3-2.7c-0.1-0.1-0.2-0.3-0.2-0.5V71.2c0-0.3,0.2-0.5,0.5-0.6
		c0.4-0.1,0.6,0,0.9,0.2l18,19.7V77.4L151.3,73.3z"/>
</g>
<g>
	<path class="st1" d="M192.9,82.9l-7-2.8c-1.3-0.5-1.9-1-2.2-1.4c-0.3-0.4-0.5-1-0.5-1.7c0-1,0.3-1.8,1-2.4c0.7-0.7,2-1,3.7-1
		c1.7,0,3.1,0.6,4.4,1.8c1.2,1.3,2,3.4,2.4,6.2L195,83h3.9l-0.6-10.9l-0.4-0.4c-1.2-1.2-2.8-2.2-4.6-2.8c-1.8-0.6-3.6-1-5.5-1
		c-2.4,0-4.6,0.5-6.3,1.4c-1.8,0.9-3.1,2.2-4,3.8c-0.9,1.5-1.3,3.3-1.3,5.2c0,2.4,0.6,4.4,1.7,6c0.3,0.5,0.7,0.9,1.2,1.3h-3.6v12.2
		l0.3,0.4c1.1,1.7,2.8,3.1,4.8,4.2c2,1.1,4.5,1.6,7.2,1.6c3.7,0,6.7-1,8.8-2.9c2.1-2,3.2-4.6,3.2-7.9c0-2.4-0.5-4.4-1.5-6.1
		C197.1,85.3,195.3,83.9,192.9,82.9z M188.1,98.1c-1.5,0-2.9-0.4-4.2-1.3c-1.3-0.9-2.4-2.1-3.2-3.8c-0.8-1.7-1.3-3.8-1.4-6.1l0-1.2
		c1,0.9,2.3,1.6,3.9,2.2l6.2,2.4c1.1,0.5,1.9,1,2.3,1.6c0.4,0.6,0.6,1.4,0.6,2.3c0,1.2-0.3,2.1-1,2.8
		C190.7,97.8,189.6,98.1,188.1,98.1z"/>
	<path class="st1" d="M219.3,72.8h1.5c0.5,0,0.8,0,1.1,0l-4.3,8.9l-5.9-13.3h-9.7v4.4h1.5c1,0,1.6,0.1,1.9,0.3
		c0.1,0,0.3,0.1,0.6,0.7l7,15.5v9.2c0,0.3,0,0.5,0,0.5c-0.1,0-0.5,0.2-1.5,0.2H210v4.4h13.9v-4.4h-1.5c-1.1,0-1.5-0.2-1.5-0.2l0,0
		c0,0-0.1-0.2-0.1-0.5V89l7.5-15.3c0.3-0.5,0.5-0.6,0.6-0.6c0.5-0.2,1.2-0.2,2-0.2h1.5v-4.4h-13.1L219.3,72.8L219.3,72.8z"/>
	<path class="st1" d="M251.4,82.9l-7-2.8c-1.3-0.5-1.9-1-2.2-1.4c-0.3-0.4-0.5-1-0.5-1.7c0-1,0.3-1.8,1-2.4c0.7-0.7,2-1,3.7-1
		c1.7,0,3.1,0.6,4.4,1.8c1.2,1.3,2,3.4,2.4,6.2l0.2,1.4h3.9l-0.6-10.9l-0.4-0.4c-1.2-1.2-2.8-2.2-4.6-2.8c-1.8-0.6-3.6-1-5.5-1
		c-2.4,0-4.6,0.5-6.3,1.4c-1.8,0.9-3.1,2.2-4,3.8c-0.9,1.5-1.3,3.3-1.3,5.2c0,2.4,0.6,4.4,1.7,6c0.3,0.5,0.7,0.9,1.2,1.3H234v12.2
		l0.3,0.4c1.1,1.7,2.8,3.1,4.8,4.2c2,1.1,4.5,1.6,7.2,1.6c3.7,0,6.7-1,8.8-2.9c2.1-2,3.2-4.6,3.2-7.9c0-2.4-0.5-4.4-1.5-6.1
		C255.7,85.3,253.9,83.9,251.4,82.9z M246.7,98.1c-1.5,0-2.9-0.4-4.2-1.3c-1.3-0.9-2.4-2.1-3.2-3.8c-0.8-1.7-1.3-3.8-1.4-6.1l0-1.2
		c1,0.9,2.3,1.6,3.9,2.2l6.2,2.4c1.1,0.5,1.9,1,2.3,1.6c0.4,0.6,0.6,1.4,0.6,2.3c0,1.2-0.3,2.1-1,2.8
		C249.2,97.8,248.2,98.1,246.7,98.1z"/>
	<path class="st1" d="M288.6,66.7l-2.1,1.3c-0.3,0.2-0.6,0.3-0.9,0.3c-0.3,0.1-0.8,0.1-1.6,0.1h-16.8c-0.9,0-1.4-0.1-1.7-0.1
		c-0.3-0.1-0.5-0.1-0.8-0.3l-2.1-1.4l-0.5,5.3l-0.6,6.8l4.1,0.5l0.2-1.6c0.2-1.9,0.5-2.8,0.6-3.2c0.1-0.2,0.1-0.2,0.3-0.2h5v24.2
		c0,0.3,0,0.5,0,0.5c-0.1,0-0.5,0.2-1.5,0.2h-1.5v4.4h13.8v-4.4h-1.5c-1.1,0-1.5-0.2-1.5-0.2l0,0c0,0-0.1-0.2-0.1-0.5V74.3h5
		c0.1,0,0.2,0,0.3,0.2c0.2,0.4,0.4,1.3,0.5,3.1l0.1,1.5l4.2-0.4l-0.5-6.9L288.6,66.7z"/>
	<path class="st1" d="M316.8,93.9c-0.5,1.9-1,2.8-1.2,3.2c-0.3,0.5-0.5,0.5-0.5,0.5h-10.7v-9.3h7.2c0.2,0,0.3,0,0.4,0
		c0,0.1,0.1,0.4,0.1,0.8v1.5h4.2V80.1H312v1.5c0,0.4,0,0.6-0.1,0.8c-0.1,0-0.2,0-0.4,0h-7.2v-8.1h10.2c0.1,0,0.2,0,0.4,0.3
		c0.2,0.4,0.6,1.4,0.9,3.2l0.3,1.6l4.2-0.9l-1.2-6.7l-0.6-3.4h-24.3v4.4h1.5c0.5,0,0.8,0.1,0.9,0.1h0c0,0.1,0.1,0.2,0.1,0.6v25
		c0,0.3,0,0.5,0,0.6c-0.1,0-0.4,0.1-0.9,0.1h-1.5v4.4h24.4l0.9-3.3l1.8-6.5l-4-1.4L316.8,93.9z"/>
	<path class="st1" d="M365.3,99.1c-0.9,0-1.2-0.2-1.2-0.2c0,0-0.1-0.1-0.2-0.6l-3.3-25.1c0-0.2,0-0.3,0-0.4c0.1,0,0.3,0,0.5,0h1.5
		v-4.4h-10.2l-6.9,22.1l-6.2-22.1h-10.6v4.4h1.5c0.3,0,0.5,0,0.6,0c0,0.1,0,0.2,0,0.4l-3.1,25.1c0,0.4-0.2,0.6-0.1,0.6
		c-0.1,0-0.4,0.2-1.2,0.2H325v4.4h12v-4.4h-1.5c-0.8,0-1.2-0.1-1.4-0.1c0-0.1,0-0.2,0-0.3l2-15.8l5.8,20.6h6.9l5.7-20.6l2.1,15.8
		c0,0.1,0,0.2,0,0.3c-0.2,0-0.6,0.1-1.4,0.1h-1.5v4.4h13.3v-4.4L365.3,99.1L365.3,99.1z"/>
</g>
<g>
	<path class="st0" d="M96.1,125.8v11.9h-1.7v-20.2l6.9,16.8l7-16.8v20.2h-1.7v-12.1l-5.4,12.6L96.1,125.8z"/>
	<path class="st0" d="M114.6,138.3c-1.4,0-2.6-0.6-3.6-1.9s-1.5-2.7-1.5-4.4v-5.8h1.7v5.8c0,1.2,0.3,2.2,1,3s1.5,1.3,2.4,1.3
		c1,0,1.8-0.4,2.5-1.2s1-1.9,1-3.1v-5.8h1.7v5.8c0,1.7-0.5,3.2-1.5,4.5C117.2,137.7,116,138.3,114.6,138.3z"/>
	<path class="st0" d="M124.1,125.7c0.5,0,0.9,0.1,1.2,0.3s0.7,0.5,1,0.8l-1.2,1.4c-0.2-0.3-0.6-0.5-1-0.5c-0.4,0-0.7,0.2-1,0.5
		c-0.2,0.3-0.4,0.7-0.4,1.2c0,0.5,0.1,0.9,0.4,1.2s0.6,0.5,0.9,0.5c0.8,0,1.5,0.4,2.1,1c0.6,0.7,0.9,1.5,0.9,2.5
		c0,1-0.3,1.9-0.9,2.6s-1.3,1.1-2.2,1.1c-0.8,0-1.5-0.4-2.1-1.1l1.2-1.4c0.3,0.3,0.6,0.5,1,0.5c0.4,0,0.7-0.2,1-0.5s0.4-0.7,0.4-1.2
		c0-0.5-0.1-0.9-0.4-1.1c-0.2-0.3-0.6-0.4-1-0.4c-0.8,0-1.5-0.4-2.1-1.1c-0.6-0.7-0.9-1.6-0.9-2.6c0-1,0.3-1.9,0.9-2.6
		C122.6,126.1,123.3,125.7,124.1,125.7z"/>
	<path class="st0" d="M129.3,120.5c0.6,0,0.8,0.3,0.8,1c0,0.3-0.1,0.5-0.2,0.7c-0.2,0.2-0.4,0.3-0.6,0.3s-0.4-0.1-0.6-0.3
		c-0.2-0.2-0.2-0.4-0.2-0.7c0-0.3,0.1-0.6,0.2-0.8C128.9,120.5,129.1,120.5,129.3,120.5z M128.5,126.1h1.7v11.7h-1.7V126.1z"/>
	<path class="st0" d="M139.2,135.2l1.2,1.4c-0.5,0.5-1,1-1.6,1.3c-0.6,0.3-1.2,0.4-1.9,0.4c-1.4,0-2.6-0.6-3.7-1.9s-1.5-2.7-1.5-4.5
		c0-1.7,0.5-3.2,1.5-4.5c1-1.2,2.2-1.9,3.7-1.9c1.4,0,2.5,0.6,3.5,1.7l-1.2,1.4c-0.6-0.7-1.4-1.1-2.3-1.1c-1,0-1.8,0.4-2.5,1.3
		s-1,1.9-1,3c0,1.2,0.3,2.2,1,3s1.5,1.3,2.5,1.3c0.5,0,0.9-0.1,1.3-0.3C138.6,135.8,138.9,135.5,139.2,135.2z"/>
	<path class="st0" d="M148.8,137.8v-19.7h10.4v2h-8.7v7.3h7.5v2h-7.5v8.3H148.8z"/>
	<path class="st0" d="M162.2,132.9c0.2,1,0.6,1.8,1.2,2.4c0.6,0.6,1.4,0.9,2.2,0.9c0.5,0,0.9-0.1,1.3-0.3c0.4-0.2,0.8-0.5,1.1-0.8
		l1.2,1.4c-0.5,0.5-1,1-1.6,1.3c-0.6,0.3-1.2,0.4-1.9,0.4c-1.4,0-2.6-0.6-3.7-1.9s-1.5-2.7-1.5-4.5c0-1.7,0.5-3.2,1.5-4.5
		c1-1.2,2.2-1.9,3.7-1.9s2.7,0.6,3.7,1.8c1,1.2,1.5,2.7,1.5,4.5v1L162.2,132.9L162.2,132.9z M162.2,130.9h6.9
		c-0.2-1-0.6-1.8-1.2-2.4c-0.6-0.6-1.4-0.9-2.2-0.9c-0.8,0-1.5,0.3-2.2,0.9C162.8,129.2,162.4,130,162.2,130.9z"/>
	<path class="st0" d="M175,125.7c0.5,0,0.9,0.1,1.2,0.3s0.7,0.5,1,0.8l-1.2,1.4c-0.2-0.3-0.6-0.5-1-0.5c-0.4,0-0.7,0.2-1,0.5
		c-0.2,0.3-0.4,0.7-0.4,1.2c0,0.5,0.1,0.9,0.4,1.2s0.6,0.5,0.9,0.5c0.8,0,1.5,0.4,2.1,1c0.6,0.7,0.9,1.5,0.9,2.5
		c0,1-0.3,1.9-0.9,2.6s-1.3,1.1-2.2,1.1c-0.8,0-1.5-0.4-2.1-1.1l1.2-1.4c0.3,0.3,0.6,0.5,1,0.5c0.4,0,0.7-0.2,1-0.5s0.4-0.7,0.4-1.2
		c0-0.5-0.1-0.9-0.4-1.1c-0.2-0.3-0.6-0.4-1-0.4c-0.8,0-1.5-0.4-2.1-1.1c-0.6-0.7-0.9-1.6-0.9-2.6c0-1,0.3-1.9,0.9-2.6
		C173.6,126.1,174.3,125.7,175,125.7z"/>
	<path class="st0" d="M182.8,118.1v6h1.7v2h-1.7v11.6h-1.7v-11.6h-1.7v-2h1.7v-6H182.8z"/>
	<path class="st0" d="M186.7,120.5c0.6,0,0.8,0.3,0.8,1c0,0.3-0.1,0.5-0.2,0.7c-0.2,0.2-0.4,0.3-0.6,0.3s-0.4-0.1-0.6-0.3
		c-0.2-0.2-0.2-0.4-0.2-0.7c0-0.3,0.1-0.6,0.2-0.8C186.3,120.5,186.5,120.5,186.7,120.5z M185.9,126.1h1.7v11.7h-1.7V126.1z"/>
	<path class="st0" d="M194.2,138.3l-5.1-12.1h1.6l3.5,8.2l3.5-8.2h1.7L194.2,138.3z"/>
	<path class="st0" d="M209.2,136.6c-0.5,0.5-1,1-1.6,1.3c-0.6,0.3-1.2,0.4-1.9,0.4c-1.4,0-2.6-0.6-3.7-1.9s-1.5-2.7-1.5-4.5
		c0-1.7,0.5-3.2,1.5-4.5c1-1.2,2.2-1.9,3.7-1.9c1.4,0,2.5,0.6,3.5,1.8v-1.2h1.7v11.6h-1.7L209.2,136.6L209.2,136.6z M205.7,127.6
		c-1,0-1.8,0.4-2.5,1.3s-1,1.9-1,3c0,1.2,0.3,2.2,1,3s1.5,1.3,2.5,1.3c1,0,1.8-0.4,2.5-1.2s1-1.9,1-3.1c0-1.2-0.3-2.2-1-3
		C207.5,128.1,206.7,127.6,205.7,127.6z"/>
	<path class="st0" d="M212.1,116.3h1.7v21.5h-1.7V116.3z"/>
	<path class="st0" d="M224,125.8v11.9h-1.7v-20.2l6.9,16.8l7-16.8v20.2h-1.7v-12.1l-5.4,12.6L224,125.8z"/>
	<path class="st0" d="M246.1,136.6c-0.5,0.5-1,1-1.6,1.3c-0.6,0.3-1.2,0.4-1.9,0.4c-1.4,0-2.6-0.6-3.7-1.9s-1.5-2.7-1.5-4.5
		c0-1.7,0.5-3.2,1.5-4.5c1-1.2,2.2-1.9,3.7-1.9c1.4,0,2.5,0.6,3.5,1.8v-1.2h1.7v11.6h-1.7L246.1,136.6L246.1,136.6z M242.6,127.6
		c-1,0-1.8,0.4-2.5,1.3s-1,1.9-1,3c0,1.2,0.3,2.2,1,3s1.5,1.3,2.5,1.3c1,0,1.8-0.4,2.5-1.2s1-1.9,1-3.1c0-1.2-0.3-2.2-1-3
		C244.4,128.1,243.6,127.6,242.6,127.6z"/>
	<path class="st0" d="M259.4,131.9v5.8h-1.7v-5.8c0-1.2-0.3-2.2-1-3c-0.7-0.8-1.5-1.3-2.5-1.3c-1,0-1.8,0.4-2.5,1.3s-1,1.9-1,3v5.8
		H249v-11.6h1.7v1.2c1-1.2,2.2-1.8,3.5-1.8c1.4,0,2.7,0.6,3.7,1.9C258.9,128.7,259.4,130.2,259.4,131.9z"/>
	<path class="st0" d="M269.4,136.6c-0.5,0.5-1,1-1.6,1.3c-0.6,0.3-1.2,0.4-1.9,0.4c-1.4,0-2.6-0.6-3.7-1.9s-1.5-2.7-1.5-4.5
		c0-1.7,0.5-3.2,1.5-4.5c1-1.2,2.2-1.9,3.7-1.9c1.4,0,2.5,0.6,3.5,1.8v-1.2h1.7v11.6h-1.7L269.4,136.6L269.4,136.6z M265.8,127.6
		c-1,0-1.8,0.4-2.5,1.3s-1,1.9-1,3c0,1.2,0.3,2.2,1,3s1.5,1.3,2.5,1.3c1,0,1.8-0.4,2.5-1.2s1-1.9,1-3.1c0-1.2-0.3-2.2-1-3
		C267.7,128.1,266.8,127.6,265.8,127.6z"/>
	<path class="st0" d="M282.7,139c0,1.7-0.5,3.2-1.5,4.4s-2.2,1.9-3.7,1.9c-1.4,0-2.5-0.5-3.5-1.7l1.2-1.4c0.7,0.7,1.5,1.1,2.3,1.1
		c1,0,1.8-0.4,2.5-1.2s1-1.8,1-3v-2.5c-0.5,0.5-1,1-1.6,1.3c-0.6,0.3-1.2,0.4-1.9,0.4c-1.4,0-2.6-0.6-3.7-1.9s-1.5-2.7-1.5-4.5
		c0-1.7,0.5-3.2,1.5-4.5c1-1.2,2.2-1.9,3.7-1.9c1.4,0,2.5,0.6,3.5,1.8v-1.2h1.7L282.7,139L282.7,139z M277.4,127.6
		c-1,0-1.8,0.4-2.5,1.3s-1,1.9-1,3c0,1.2,0.3,2.2,1,3s1.5,1.3,2.5,1.3c1,0,1.8-0.4,2.5-1.2s1-1.9,1-3.1c0-1.2-0.3-2.2-1-3
		C279.3,128.1,278.4,127.6,277.4,127.6z"/>
	<path class="st0" d="M293.5,128.6c0.5-0.9,1.1-1.6,1.9-2.1c0.8-0.5,1.7-0.8,2.6-0.8c1.4,0,2.6,0.6,3.7,1.9c1,1.2,1.5,2.7,1.5,4.5
		v5.8h-1.7v-5.8c0-1.2-0.3-2.2-1-3c-0.7-0.8-1.5-1.3-2.5-1.3c-1.1,0-2,0.4-2.7,1.3c-0.7,0.8-1.1,1.9-1.1,3.1v5.8h-1.7v-5.8
		c0-1.2-0.3-2.2-1-3c-0.7-0.8-1.5-1.3-2.5-1.3c-1,0-1.8,0.4-2.5,1.3s-1,1.9-1,3v5.8h-1.7v-11.6h1.7v1.2c1-1.2,2.2-1.8,3.5-1.8
		c0.9,0,1.8,0.3,2.5,0.8S293,127.7,293.5,128.6z"/>
	<path class="st0" d="M305.9,132.9c0.2,1,0.6,1.8,1.2,2.4c0.6,0.6,1.3,0.9,2.2,0.9c0.5,0,0.9-0.1,1.3-0.3c0.4-0.2,0.8-0.5,1.1-0.8
		l1.2,1.4c-0.5,0.5-1,1-1.6,1.3c-0.6,0.3-1.2,0.4-1.9,0.4c-1.4,0-2.6-0.6-3.7-1.9c-1-1.2-1.5-2.7-1.5-4.5c0-1.7,0.5-3.2,1.5-4.5
		c1-1.2,2.2-1.9,3.7-1.9s2.7,0.6,3.7,1.8c1,1.2,1.5,2.7,1.5,4.5v1L305.9,132.9L305.9,132.9z M305.9,130.9h6.9
		c-0.2-1-0.6-1.8-1.2-2.4c-0.6-0.6-1.4-0.9-2.2-0.9c-0.8,0-1.5,0.3-2.2,0.9C306.5,129.2,306,130,305.9,130.9z"/>
	<path class="st0" d="M326.1,131.9v5.8h-1.7v-5.8c0-1.2-0.3-2.2-1-3c-0.7-0.8-1.5-1.3-2.5-1.3c-1,0-1.8,0.4-2.5,1.3s-1,1.9-1,3v5.8
		h-1.7v-11.6h1.7v1.2c1-1.2,2.2-1.8,3.5-1.8c1.4,0,2.7,0.6,3.7,1.9C325.6,128.7,326.1,130.2,326.1,131.9z"/>
	<path class="st0" d="M330.7,118.1v6h1.7v2h-1.7v11.6H329v-11.6h-1.7v-2h1.7v-6H330.7z"/>
</g>
<path class="st1" d="M367.6,184.7c0.1,0.2,0.1,0.3,0.2,0.5"/>
<path class="st1" d="M374.9,159.9c0.1-0.1,0.1-0.4,0.1-0.5C375,159.5,374.9,159.9,374.9,159.9z"/>
</svg>
